:FULLY-SPECIFIED
:FORCE-ALL-JOINTS-BE-3DOF
:DEGREES
1121
root 0.913765 14.4975 -28.1191 365.715 -7.48568 362.328
lfemur -42.9597 12.1709 -27.6346
ltibia 74.7798 0 0
lfoot -23.3508 27.3292 0
ltoes -13.6298 0 0
rfemur -46.0885 -12.0323 16.9402
rtibia 102.665 0 0
rfoot -8.56068 -5.24264 0
rtoes -13.9175 0 0
lowerback 14.6796 0.474333 -9.50564
upperback -1.06464 -0.846241 1.93757
thorax -9.2968 0.131996 7.74124
lowerneck -6.18631 1.48561 -1.37561
upperneck 2.52914 1.91974 1.86422
head 1.9538 0.98304 0.834314
lclavicle -7.02643e-14 -1.38394e-14 0
lhumerus 68.3316 -10.1193 48.2333
lradius 83.0602 0 0
lwrist 32.86 0 0
lhand -33.6076 36.1328 0
lfingers 7.12502 0 0
lthumb -6.80079 65.9082 0
rclavicle -7.02643e-14 -1.38394e-14 0
rhumerus -40.7264 20.1178 -93.8451
rradius 86.096 0 0
rwrist -43.5955 0 0
rhand -20.9988 -50.1563 0
rfingers 7.12502 0 0
rthumb 5.37602 -80.0149 0
1122
root 0.881864 14.4935 -27.9232 365.695 -7.39847 362.273
lfemur -42.8463 12.219 -27.4907
ltibia 74.7316 0 0
lfoot -23.3546 27.2724 0
ltoes -13.6685 0 0
rfemur -45.8928 -12.0256 16.8393
rtibia 102.213 0 0
rfoot -8.54867 -5.27103 0
rtoes -13.9415 0 0
lowerback 14.6599 0.486446 -9.46352
upperback -1.0616 -0.822215 1.94025
thorax -9.28606 0.140903 7.71443
lowerneck -6.15849 1.44707 -1.41598
upperneck 2.56766 1.86497 1.90142
head 1.97078 0.955869 0.848731
lclavicle -6.91525e-14 -1.34004e-14 0
lhumerus 67.7669 -10.0878 48.4517
lradius 83.181 0 0
lwrist 32.8768 0 0
lhand -33.5052 35.9928 0
lfingers 7.12502 0 0
lthumb -6.70203 65.7665 0
rclavicle -6.91525e-14 -1.34004e-14 0
rhumerus -40.3797 19.9901 -93.571
rradius 86.2069 0 0
rwrist -43.4036 0 0
rhand -21.0442 -50.0322 0
rfingers 7.12502 0 0
rthumb 5.33219 -79.8875 0
1123
root 0.849964 14.4894 -27.7272 365.67 -7.29545 362.21
lfemur -42.7123 12.2733 -27.3251
ltibia 74.6746 0 0
lfoot -23.3596 27.2082 0
ltoes -13.7127 0 0
rfemur -45.6695 -12.0181 16.7228
rtibia 101.692 0 0
rfoot -8.53377 -5.30232 0
rtoes -13.9678 0 0
lowerback 14.6372 0.500584 -9.4156
upperback -1.05802 -0.794401 1.94299
thorax -9.27365 0.151245 7.68348
lowerneck -6.1262 1.40175 -1.46326
upperneck 2.61216 1.80063 1.94487
head 1.99043 0.923945 0.865576
lclavicle -6.78707e-14 -1.28966e-14 0
lhumerus 67.1091 -10.0521 48.7067
lradius 83.3214 0 0
lwrist 32.8978 0 0
lhand -33.3861 35.8303 0
lfingers 7.12502 0 0
lthumb -6.58708 65.602 0
rclavicle -6.78707e-14 -1.28966e-14 0
rhumerus -39.9739 19.8415 -93.2522
rradius 86.3339 0 0
rwrist -43.1788 0 0
rhand -21.0978 -49.8896 0
rfingers 7.12502 0 0
rthumb 5.28037 -79.7412 0
1124
root 0.818064 14.4854 -27.5313 365.64 -7.16819 362.142
lfemur -42.5466 12.3303 -27.1375
ltibia 74.6048 0 0
lfoot -23.3676 27.1401 0
ltoes -13.762 0 0
rfemur -45.4238 -12.0101 16.5891
rtibia 101.1 0 0
rfoot -8.51263 -5.33232 0
rtoes -13.9926 0 0
lowerback 14.6115 0.517392 -9.36345
upperback -1.05369 -0.762236 1.94472
thorax -9.2594 0.163323 7.648
lowerneck -6.08851 1.3466 -1.52005
upperneck 2.66321 1.72252 1.99665
head 2.01311 0.885187 0.885671
lclavicle -6.64092e-14 -1.23307e-14 0
lhumerus 66.3319 -10.0138 49.0098
lradius 83.4853 0 0
lwrist 32.9288 0 0
lhand -33.2459 35.6409 0
lfingers 7.12502 0 0
lthumb -6.45172 65.4104 0
rclavicle -6.64092e-14 -1.23307e-14 0
rhumerus -39.4866 19.6662 -92.8773
rradius 86.4756 0 0
rwrist -42.9081 0 0
rhand -21.1642 -49.7293 0
rfingers 7.12502 0 0
rthumb 5.21623 -79.5766 0
1125
root 0.786163 14.4814 -27.3354 365.601 -7.00827 362.071
lfemur -42.3381 12.3868 -26.9277
ltibia 74.5175 0 0
lfoot -23.3805 27.0719 0
ltoes -13.8156 0 0
rfemur -45.1612 -12.0022 16.4365
rtibia 100.435 0 0
rfoot -8.48192 -5.35686 0
rtoes -14.012 0 0
lowerback 14.5828 0.537514 -9.30864
upperback -1.04835 -0.725155 1.94439
thorax -9.24316 0.177442 7.60761
lowerneck -6.04453 1.27856 -1.58897
upperneck 2.72139 1.62646 2.05881
head 2.03919 0.837512 0.909837
lclavicle -6.47582e-14 -1.17057e-14 0
lhumerus 65.4093 -9.97484 49.3724
lradius 83.6768 0 0
lwrist 32.9752 0 0
lhand -33.0801 35.4203 0
lfingers 7.12502 0 0
lthumb -6.29173 65.187 0
rclavicle -6.47582e-14 -1.17057e-14 0
rhumerus -38.8956 19.4588 -92.4351
rradius 86.6306 0 0
rwrist -42.5786 0 0
rhand -21.2478 -49.5518 0
rfingers 7.12502 0 0
rthumb 5.13545 -79.3944 0
1126
root 0.754263 14.4773 -27.1395 365.55 -6.80728 362
lfemur -42.0756 12.4394 -26.6953
ltibia 74.4087 0 0
lfoot -23.4002 27.0069 0
ltoes -13.873 0 0
rfemur -44.8868 -11.9948 16.2634
rtibia 99.6934 0 0
rfoot -8.4383 -5.37175 0
rtoes -14.0223 0 0
lowerback 14.551 0.561593 -9.25275
upperback -1.04179 -0.682594 1.94092
thorax -9.22474 0.193903 7.56194
lowerneck -5.99332 1.19457 -1.67261
upperneck 2.78731 1.50826 2.13342
head 2.06905 0.778838 0.938894
lclavicle -6.29079e-14 -1.10245e-14 0
lhumerus 64.3151 -9.93675 49.8062
lradius 83.9001 0 0
lwrist 33.0427 0 0
lhand -32.8844 35.164 0
lfingers 7.12502 0 0
lthumb -6.10288 64.9273 0
rclavicle -6.29079e-14 -1.10245e-14 0
rhumerus -38.1787 19.2135 -91.9145
rradius 86.7973 0 0
rwrist -42.1776 0 0
rhand -21.3531 -49.3577 0
rfingers 7.12502 0 0
rthumb 5.03368 -79.195 0
1127
root 0.722362 14.4733 -26.9436 365.485 -6.5568 361.929
lfemur -41.748 12.4848 -26.4401
ltibia 74.2738 0 0
lfoot -23.4286 26.9489 0
ltoes -13.9335 0 0
rfemur -44.6059 -11.9883 16.0682
rtibia 98.8741 0 0
rfoot -8.37841 -5.37282 0
rtoes -14.0196 0 0
lowerback 14.5161 0.590273 -9.19736
upperback -1.03376 -0.633989 1.93325
thorax -9.20399 0.213009 7.5106
lowerneck -5.93398 1.09157 -1.7736
upperneck 2.86153 1.36372 2.22256
head 2.10304 0.707083 0.973663
lclavicle -6.08486e-14 -1.02899e-14 0
lhumerus 63.0232 -9.90127 50.3228
lradius 84.1591 0 0
lwrist 33.1369 0 0
lhand -32.6545 34.8675 0
lfingers 7.12502 0 0
lthumb -5.88096 64.627 0
rclavicle -6.08486e-14 -1.02899e-14 0
rhumerus -37.3137 18.9248 -91.3041
rradius 86.9744 0 0
rwrist -41.6921 0 0
rhand -21.4847 -49.1476 0
rfingers 7.12502 0 0
rthumb 4.9066 -78.9792 0
1128
root 0.690462 14.4693 -26.7477 365.404 -6.24841 361.862
lfemur -41.3443 12.5197 -26.1618
ltibia 74.1086 0 0
lfoot -23.4675 26.9013 0
ltoes -13.9965 0 0
rfemur -44.3239 -11.9833 15.8494
rtibia 97.9742 0 0
rfoot -8.29892 -5.35586 0
rtoes -14 0 0
lowerback 14.4781 0.624198 -9.14403
upperback -1.02403 -0.578775 1.92033
thorax -9.18073 0.235064 7.4532
lowerneck -5.86558 0.966499 -1.89453
upperneck 2.94464 1.18867 2.32828
head 2.14153 0.620164 1.01496
lclavicle -5.85704e-14 -9.50488e-15 0
lhumerus 61.5074 -9.8701 50.9336
lradius 84.4581 0 0
lwrist 33.2632 0 0
lhand -32.3859 34.5265 0
lfingers 7.12502 0 0
lthumb -5.62174 64.2815 0
rclavicle -5.85704e-14 -9.50488e-15 0
rhumerus -36.2783 18.587 -90.5928
rradius 87.1604 0 0
rwrist -41.1092 0 0
rhand -21.647 -48.9222 0
rfingers 7.12502 0 0
rthumb 4.74987 -78.7475 0
1129
root 0.658561 14.4652 -26.5517 365.304 -5.87368 361.802
lfemur -40.8533 12.5406 -25.86
ltibia 73.9087 0 0
lfoot -23.5187 26.8677 0
ltoes -14.0615 0 0
rfemur -44.046 -11.9802 15.6052
rtibia 96.9913 0 0
rfoot -8.19649 -5.31672 0
rtoes -13.9598 0 0
lowerback 14.4369 0.664012 -9.09436
upperback -1.01237 -0.516389 1.90108
thorax -9.15481 0.260369 7.38938
lowerneck -5.78722 0.816304 -2.03802
upperneck 3.03724 0.978901 2.45266
head 2.1849 0.515999 1.06362
lclavicle -5.60637e-14 -8.67229e-15 0
lhumerus 59.7416 -9.84494 51.6502
lradius 84.8011 0 0
lwrist 33.4274 0 0
lhand -32.0743 34.1366 0
lfingers 7.12502 0 0
lthumb -5.32101 63.8863 0
rclavicle -5.60637e-14 -8.67229e-15 0
rhumerus -35.0503 18.1945 -89.7692
rradius 87.3538 0 0
rwrist -40.416 0 0
rhand -21.8445 -48.682 0
rfingers 7.12502 0 0
rthumb 4.55915 -78.5006 0
1130
root 0.626661 14.4612 -26.3558 365.182 -5.42422 361.749
lfemur -40.2639 12.5444 -25.5345
ltibia 73.6698 0 0
lfoot -23.5842 26.8517 0
ltoes -14.1278 0 0
rfemur -43.7776 -11.9795 15.3342
rtibia 95.923 0 0
rfoot -8.06776 -5.25119 0
rtoes -13.895 0 0
lowerback 14.3924 0.710358 -9.0499
upperback -0.998551 -0.446265 1.87445
thorax -9.12604 0.289228 7.31874
lowerneck -5.69796 0.637925 -2.20668
upperneck 3.13989 0.730235 2.59777
head 2.2335 0.392506 1.12045
lclavicle -5.33186e-14 -7.79502e-15 0
lhumerus 57.6997 -9.82748 52.4842
lradius 85.1922 0 0
lwrist 33.635 0 0
lhand -31.7153 33.6933 0
lfingers 7.12502 0 0
lthumb -4.97453 63.4369 0
rclavicle -5.33186e-14 -7.79502e-15 0
rhumerus -33.6075 17.7417 -88.8222
rradius 87.5532 0 0
rwrist -39.5997 0 0
rhand -22.0816 -48.4278 0
rfingers 7.12502 0 0
rthumb 4.33012 -78.2391 0
